<svg width="800" height="800" viewBox="0 0 800 800" xmlns="http://www.w3.org/2000/svg" role="img" aria-label="Red Shield CyberOps shield emblem">
<defs>
<radialGradient id="glow" cx="50%" cy="45%" r="55%">
<stop offset="0%" stop-color="#E50914" stop-opacity="0.28"/>
<stop offset="100%" stop-color="#E50914" stop-opacity="0"/>
</radialGradient>
<linearGradient id="shieldGrad" x1="0" y1="0" x2="1" y2="1">
<stop offset="0%" stop-color="#3a0006"/>
<stop offset="50%" stop-color="#70000A"/>
<stop offset="100%" stop-color="#E50914"/>
</linearGradient>
</defs>
<rect width="800" height="800" fill="none"/>
<circle cx="400" cy="400" r="380" fill="url(#glow)"/>
<circle cx="400" cy="400" r="300" fill="none" stroke="#E50914" stroke-opacity="0.25" stroke-width="1.5"/>
<circle cx="400" cy="400" r="230" fill="none" stroke="#FF1E2D" stroke-opacity="0.4" stroke-width="1" stroke-dasharray="4 6"/>
<circle cx="400" cy="400" r="170" fill="none" stroke="#70000A" stroke-opacity="0.5" stroke-width="1"/>
<g transform="translate(400,400) scale(11) translate(-12,-13)">
<path d="M12 1 3 5v6c0 5.5 3.8 10.7 9 12 5.2-1.3 9-6.5 9-12V5l-9-4Z" fill="url(#shieldGrad)" stroke="#FF1E2D" stroke-width="0.35"/>
<path d="M8.5 12.2l2.4 2.4 4.6-4.9" stroke="#050505" stroke-width="1.4" stroke-linecap="round" stroke-linejoin="round" fill="none"/>
</g>
<circle cx="400" cy="52" r="5" fill="#FF1E2D"/>
<circle cx="52" cy="400" r="5" fill="#FF1E2D"/>
<circle cx="748" cy="400" r="5" fill="#FF1E2D"/>
<circle cx="240" cy="700" r="5" fill="#FF1E2D"/>
<circle cx="560" cy="700" r="5" fill="#FF1E2D"/>
</svg>
